<?xml version="1.0" encoding="utf-8"?>
<!-- Generator: Adobe Illustrator 22.0.1, SVG Export Plug-In . SVG Version: 6.00 Build 0)  -->
<svg version="1.1" id="Layer_1" xmlns="http://www.w3.org/2000/svg" xmlns:xlink="http://www.w3.org/1999/xlink" x="0px" y="0px"
	 viewBox="0 0 534 348" style="enable-background:new 0 0 534 348;" xml:space="preserve">
<style type="text/css">
	.st0{clip-path:url(#SVGID_2_);}
	.st1{fill:#D2D3D3;}
	.st2{fill:#CDCCCC;}
	.st3{fill:#E8E8E8;}
	.st4{fill:#D7D7D7;}
	.st5{fill:#DDDDDC;}
	.st6{fill:#D9D9D8;}
	.st7{fill:#C9C9C9;}
	.st8{fill:#CBCBCB;}
	.st9{fill:#E0E0DF;}
	.st10{fill:#C0BFBF;}
	.st11{fill:#E9E9E9;}
	.st12{fill:#E2E2E2;}
	.st13{fill:#E4E4E4;}
	.st14{fill:#E3E3E3;}
	.st15{fill:#DBDADA;}
	.st16{fill:#C4C4C4;}
	.st17{fill:#C8C7C7;}
	.st18{fill:#CFCFCE;}
	.st19{fill:#C2C1C1;}
	.st20{fill:#CFD0D0;}
	.st21{fill:#D3D3D3;}
	.st22{fill:#D7D6D6;}
	.st23{fill:#D1D2D2;}
	.st24{fill:#E0E1E0;}
	.st25{fill:#F1F0F0;}
	.st26{fill:#E5E5E5;}
	.st27{fill:#D0D1D1;}
	.st28{fill:#E1E1E1;}
	.st29{fill:#DCDBDB;}
	.st30{fill:#C2C2C2;}
	.st31{fill:#C8C8C8;}
	.st32{fill:#F0EFEF;}
	.st33{fill:#ECECEC;}
	.st34{fill:#E6E6E5;}
	.st35{fill:#D4D4D4;}
	.st36{fill:#C7C6C6;}
	.st37{fill:#EBEBEB;}
	.st38{fill:#F3F3F3;}
	.st39{fill:#E7E7E7;}
	.st40{fill:#F4F4F4;}
	.st41{fill:#DFDFDE;}
	.st42{fill:#EAEAEA;}
	.st43{fill:#DEDEDD;}
	.st44{fill:#F2F2F2;}
	.st45{fill:#EDEDED;}
	.st46{fill:#D6D5D5;}
	.st47{fill:#D8D9D8;}
	.st48{fill:#EFEEEE;}
	.st49{fill:#FAFAFA;}
	.st50{fill:#F5F6F6;}
	.st51{fill:#F6F6F6;}
	.st52{fill:#F7F8F8;}
	.st53{fill:#CACACA;}
</style>
<g>
	<defs>
		<rect id="SVGID_1_" x="0" y="0" width="534" height="348"/>
	</defs>
	<clipPath id="SVGID_2_">
		<use xlink:href="#SVGID_1_"  style="overflow:visible;"/>
	</clipPath>
	<g class="st0">
		<polygon class="st1" points="-9.5,-10 -2.5,144 2.5,90 		"/>
		<polygon class="st2" points="-2.5,144 -5.5,281 3.5,203 		"/>
		<polygon class="st3" points="2.5,90 -2.5,144 5.5,127 		"/>
		<polygon class="st4" points="3.5,203 -5.5,281 5.5,226 		"/>
		<polygon class="st5" points="-9.5,-10 2.5,90 6.5,53 		"/>
		<polygon class="st6" points="-2.5,144 3.5,203 9.5,159 		"/>
		<polygon class="st7" points="5.5,127 -2.5,144 9.5,159 		"/>
		<polygon class="st3" points="-9.5,-10 6.5,53 10.5,9 		"/>
		<polygon class="st8" points="-5.5,281 -9.5,360 11.5,317 		"/>
		<polygon class="st9" points="-9.5,360 -3.5,356 11.5,317 		"/>
		<polygon class="st10" points="5.5,226 -5.5,281 20.5,281 		"/>
		<polygon class="st11" points="-5.5,281 11.5,317 20.5,281 		"/>
		<polygon class="st12" points="10.5,9 6.5,53 24.5,33 		"/>
		<polygon class="st13" points="9.5,159 3.5,203 26.5,162 		"/>
		<polygon class="st14" points="5.5,127 9.5,159 27.5,126 		"/>
		<polygon class="st15" points="9.5,159 26.5,162 27.5,126 		"/>
		<polygon class="st3" points="2.5,90 5.5,127 27.5,126 		"/>
		<polygon class="st6" points="3.5,203 5.5,226 31.5,236 		"/>
		<polygon class="st16" points="5.5,226 20.5,281 31.5,236 		"/>
		<polygon class="st2" points="2.5,90 27.5,126 38.5,88 		"/>
		<polygon class="st17" points="6.5,53 2.5,90 38.5,88 		"/>
		<polygon class="st18" points="31.5,236 20.5,281 42.5,281 		"/>
		<polygon class="st5" points="20.5,281 11.5,317 42.5,281 		"/>
		<polygon class="st19" points="11.5,317 -3.5,356 45.5,331 		"/>
		<polygon class="st20" points="42.5,281 11.5,317 45.5,331 		"/>
		<polygon class="st21" points="-3.5,356 -9.5,360 48.5,356 		"/>
		<polygon class="st21" points="45.5,331 -3.5,356 48.5,356 		"/>
		<polygon class="st22" points="24.5,33 6.5,53 50.5,54 		"/>
		<polygon class="st21" points="6.5,53 38.5,88 50.5,54 		"/>
		<polygon class="st23" points="26.5,162 3.5,203 51.5,199 		"/>
		<polygon class="st18" points="3.5,203 31.5,236 51.5,199 		"/>
		<polygon class="st24" points="10.5,9 24.5,33 56.5,29 		"/>
		<polygon class="st25" points="24.5,33 50.5,54 56.5,29 		"/>
		<polygon class="st23" points="27.5,126 26.5,162 60.5,165 		"/>
		<polygon class="st15" points="26.5,162 51.5,199 60.5,165 		"/>
		<polygon class="st9" points="-9.5,-10 10.5,9 70.5,-9 		"/>
		<polygon class="st26" points="10.5,9 56.5,29 70.5,-9 		"/>
		<polygon class="st27" points="38.5,88 27.5,126 70.5,110 		"/>
		<polygon class="st15" points="27.5,126 60.5,165 71.5,159 		"/>
		<polygon class="st24" points="70.5,110 27.5,126 71.5,159 		"/>
		<polygon class="st20" points="31.5,236 42.5,281 74.5,231 		"/>
		<polygon class="st28" points="51.5,199 31.5,236 74.5,231 		"/>
		<polygon class="st29" points="70.5,-9 56.5,29 79.5,5 		"/>
		<polygon class="st14" points="56.5,29 50.5,54 85.5,37 		"/>
		<polygon class="st20" points="79.5,5 56.5,29 85.5,37 		"/>
		<polygon class="st13" points="50.5,54 38.5,88 85.5,86 		"/>
		<polygon class="st27" points="38.5,88 70.5,110 85.5,86 		"/>
		<polygon class="st4" points="85.5,37 50.5,54 87.5,60 		"/>
		<polygon class="st26" points="50.5,54 85.5,86 87.5,60 		"/>
		<polygon class="st23" points="51.5,199 74.5,231 92.5,185 		"/>
		<polygon class="st22" points="60.5,165 51.5,199 92.5,185 		"/>
		<polygon class="st18" points="71.5,159 60.5,165 92.5,185 		"/>
		<polygon class="st7" points="45.5,331 48.5,356 93.5,326 		"/>
		<polygon class="st15" points="42.5,281 45.5,331 93.5,326 		"/>
		<polygon class="st30" points="74.5,231 42.5,281 95.5,277 		"/>
		<polygon class="st26" points="42.5,281 93.5,326 95.5,277 		"/>
		<polygon class="st6" points="93.5,326 48.5,356 103.5,355 		"/>
		<polygon class="st9" points="70.5,110 71.5,159 104.5,146 		"/>
		<polygon class="st22" points="71.5,159 92.5,185 104.5,146 		"/>
		<polygon class="st12" points="85.5,86 70.5,110 109.5,131 		"/>
		<polygon class="st23" points="70.5,110 104.5,146 109.5,131 		"/>
		<polygon class="st17" points="95.5,277 93.5,326 114.5,277 		"/>
		<polygon class="st26" points="74.5,231 95.5,277 114.5,247 		"/>
		<polygon class="st31" points="95.5,277 114.5,277 114.5,247 		"/>
		<polygon class="st32" points="87.5,60 85.5,86 116.5,91 		"/>
		<polygon class="st25" points="85.5,86 109.5,131 116.5,91 		"/>
		<polygon class="st32" points="85.5,37 87.5,60 122.5,63 		"/>
		<polygon class="st15" points="87.5,60 116.5,91 122.5,63 		"/>
		<polygon class="st33" points="85.5,37 122.5,63 130.5,35 		"/>
		<polygon class="st4" points="79.5,5 85.5,37 130.5,9 		"/>
		<polygon class="st9" points="85.5,37 130.5,35 130.5,9 		"/>
		<polygon class="st26" points="70.5,-9 79.5,5 131.5,-5 		"/>
		<polygon class="st34" points="79.5,5 130.5,9 131.5,-5 		"/>
		<polygon class="st8" points="93.5,326 103.5,355 132.5,315 		"/>
		<polygon class="st18" points="114.5,277 93.5,326 132.5,315 		"/>
		<polygon class="st35" points="92.5,185 74.5,231 134.5,225 		"/>
		<polygon class="st36" points="74.5,231 114.5,247 134.5,225 		"/>
		<polygon class="st9" points="104.5,146 92.5,185 143.5,161 		"/>
		<polygon class="st14" points="92.5,185 134.5,225 143.5,161 		"/>
		<polygon class="st37" points="109.5,131 104.5,146 143.5,161 		"/>
		<polygon class="st13" points="70.5,-9 131.5,-5 150.5,-10 		"/>
		<polygon class="st38" points="131.5,-5 130.5,9 150.5,-10 		"/>
		<polygon class="st6" points="114.5,247 114.5,277 151.5,244 		"/>
		<polygon class="st14" points="134.5,225 114.5,247 151.5,244 		"/>
		<polygon class="st5" points="116.5,91 109.5,131 155.5,127 		"/>
		<polygon class="st33" points="109.5,131 143.5,161 155.5,127 		"/>
		<polygon class="st6" points="132.5,315 103.5,355 156.5,346 		"/>
		<polygon class="st21" points="143.5,161 134.5,225 161.5,214 		"/>
		<polygon class="st3" points="134.5,225 151.5,244 161.5,214 		"/>
		<polygon class="st14" points="122.5,63 116.5,91 162.5,98 		"/>
		<polygon class="st25" points="116.5,91 155.5,127 162.5,98 		"/>
		<polygon class="st39" points="130.5,35 122.5,63 172.5,70 		"/>
		<polygon class="st26" points="122.5,63 162.5,98 172.5,70 		"/>
		<polygon class="st28" points="130.5,35 172.5,70 178.5,46 		"/>
		<polygon class="st34" points="130.5,9 130.5,35 178.5,46 		"/>
		<polygon class="st39" points="150.5,-10 130.5,9 178.5,46 		"/>
		<polygon class="st40" points="143.5,161 161.5,214 180.5,191 		"/>
		<polygon class="st13" points="161.5,214 151.5,244 181.5,254 		"/>
		<polygon class="st39" points="132.5,315 156.5,346 188.5,292 		"/>
		<polygon class="st11" points="181.5,254 151.5,244 188.5,292 		"/>
		<polygon class="st5" points="114.5,277 132.5,315 188.5,292 		"/>
		<polygon class="st41" points="151.5,244 114.5,277 188.5,292 		"/>
		<polygon class="st11" points="180.5,191 161.5,214 195.5,244 		"/>
		<polygon class="st9" points="161.5,214 181.5,254 195.5,244 		"/>
		<polygon class="st13" points="181.5,254 188.5,292 200.5,251 		"/>
		<polygon class="st34" points="195.5,244 181.5,254 200.5,251 		"/>
		<polygon class="st9" points="155.5,127 143.5,161 208.5,143 		"/>
		<polygon class="st38" points="143.5,161 180.5,191 208.5,143 		"/>
		<polygon class="st20" points="162.5,98 155.5,127 208.5,143 		"/>
		<polygon class="st41" points="156.5,346 103.5,355 209.5,353 		"/>
		<polygon class="st25" points="150.5,-10 178.5,46 211.5,-1 		"/>
		<polygon class="st42" points="172.5,70 162.5,98 217.5,91 		"/>
		<polygon class="st25" points="162.5,98 208.5,143 217.5,91 		"/>
		<polygon class="st2" points="188.5,292 156.5,346 217.5,328 		"/>
		<polygon class="st26" points="156.5,346 209.5,353 217.5,328 		"/>
		<polygon class="st43" points="178.5,46 172.5,70 218.5,56 		"/>
		<polygon class="st25" points="172.5,70 217.5,91 218.5,56 		"/>
		<polygon class="st9" points="211.5,-1 178.5,46 218.5,56 		"/>
		<polygon class="st14" points="195.5,244 200.5,251 218.5,217 		"/>
		<polygon class="st44" points="180.5,191 195.5,244 218.5,217 		"/>
		<polygon class="st9" points="188.5,292 217.5,328 228.5,323 		"/>
		<polygon class="st44" points="211.5,-1 218.5,56 231.5,12 		"/>
		<polygon class="st13" points="200.5,251 188.5,292 233.5,265 		"/>
		<polygon class="st29" points="188.5,292 228.5,323 233.5,265 		"/>
		<polygon class="st23" points="218.5,217 200.5,251 233.5,265 		"/>
		<polygon class="st36" points="217.5,328 209.5,353 241.5,348 		"/>
		<polygon class="st22" points="228.5,323 217.5,328 241.5,348 		"/>
		<polygon class="st15" points="208.5,143 180.5,191 247.5,172 		"/>
		<polygon class="st45" points="180.5,191 218.5,217 247.5,172 		"/>
		<polygon class="st32" points="218.5,56 217.5,91 247.5,54 		"/>
		<polygon class="st43" points="231.5,12 218.5,56 247.5,54 		"/>
		<polygon class="st14" points="218.5,217 233.5,265 254.5,240 		"/>
		<polygon class="st46" points="247.5,172 218.5,217 254.5,240 		"/>
		<polygon class="st33" points="217.5,91 208.5,143 261.5,143 		"/>
		<polygon class="st38" points="208.5,143 247.5,172 261.5,143 		"/>
		<polygon class="st45" points="211.5,-1 231.5,12 262.5,-4 		"/>
		<polygon class="st32" points="150.5,-10 211.5,-1 262.5,-4 		"/>
		<polygon class="st9" points="231.5,12 247.5,54 262.5,11 		"/>
		<polygon class="st47" points="262.5,-4 231.5,12 262.5,11 		"/>
		<polygon class="st11" points="262.5,11 247.5,54 265.5,58 		"/>
		<polygon class="st12" points="228.5,323 241.5,348 265.5,311 		"/>
		<polygon class="st37" points="233.5,265 228.5,323 265.5,311 		"/>
		<polygon class="st6" points="217.5,91 261.5,143 269.5,89 		"/>
		<polygon class="st48" points="247.5,54 217.5,91 269.5,89 		"/>
		<polygon class="st38" points="265.5,58 247.5,54 269.5,89 		"/>
		<polygon class="st37" points="265.5,311 241.5,348 269.5,356 		"/>
		<polygon class="st34" points="241.5,348 209.5,353 269.5,356 		"/>
		<polygon class="st28" points="254.5,240 233.5,265 272.5,272 		"/>
		<polygon class="st24" points="233.5,265 265.5,311 272.5,272 		"/>
		<polygon class="st11" points="272.5,272 265.5,311 276.5,310 		"/>
		<polygon class="st26" points="269.5,89 261.5,143 290.5,98 		"/>
		<polygon class="st49" points="265.5,58 269.5,89 290.5,98 		"/>
		<polygon class="st41" points="265.5,311 269.5,356 294.5,335 		"/>
		<polygon class="st11" points="276.5,310 265.5,311 294.5,335 		"/>
		<polygon class="st50" points="247.5,172 254.5,240 297.5,196 		"/>
		<polygon class="st37" points="261.5,143 247.5,172 297.5,196 		"/>
		<polygon class="st22" points="294.5,335 269.5,356 298.5,351 		"/>
		<polygon class="st5" points="272.5,272 276.5,310 306.5,302 		"/>
		<polygon class="st46" points="276.5,310 294.5,335 306.5,302 		"/>
		<polygon class="st13" points="272.5,272 306.5,302 314.5,272 		"/>
		<polygon class="st42" points="254.5,240 272.5,272 314.5,272 		"/>
		<polygon class="st13" points="297.5,196 254.5,240 314.5,272 		"/>
		<polygon class="st26" points="262.5,11 265.5,58 315.5,17 		"/>
		<polygon class="st43" points="262.5,-4 262.5,11 315.5,17 		"/>
		<polygon class="st37" points="290.5,98 261.5,143 325.5,149 		"/>
		<polygon class="st9" points="261.5,143 297.5,196 325.5,149 		"/>
		<polygon class="st34" points="290.5,98 325.5,149 325.5,106 		"/>
		<polygon class="st33" points="323.5,15 315.5,17 326.5,64 		"/>
		<polygon class="st42" points="290.5,98 325.5,106 326.5,64 		"/>
		<polygon class="st51" points="265.5,58 290.5,98 326.5,64 		"/>
		<polygon class="st24" points="315.5,17 265.5,58 326.5,64 		"/>
		<polygon class="st39" points="262.5,-4 315.5,17 326.5,-9 		"/>
		<polygon class="st44" points="315.5,17 323.5,15 326.5,-9 		"/>
		<polygon class="st29" points="150.5,-10 262.5,-4 326.5,-9 		"/>
		<polygon class="st42" points="297.5,196 314.5,272 330.5,257 		"/>
		<polygon class="st33" points="325.5,149 297.5,196 340.5,155 		"/>
		<polygon class="st42" points="325.5,106 325.5,149 340.5,155 		"/>
		<polygon class="st38" points="297.5,196 330.5,257 347.5,202 		"/>
		<polygon class="st1" points="340.5,155 297.5,196 347.5,202 		"/>
		<polygon class="st9" points="314.5,272 306.5,302 350.5,312 		"/>
		<polygon class="st9" points="294.5,335 298.5,351 350.5,312 		"/>
		<polygon class="st46" points="306.5,302 294.5,335 350.5,312 		"/>
		<polygon class="st25" points="330.5,257 314.5,272 350.5,265 		"/>
		<polygon class="st11" points="314.5,272 350.5,312 350.5,265 		"/>
		<polygon class="st14" points="350.5,312 298.5,351 356.5,359 		"/>
		<polygon class="st17" points="298.5,351 269.5,356 356.5,359 		"/>
		<polygon class="st5" points="350.5,312 356.5,359 365.5,358 		"/>
		<polygon class="st14" points="326.5,-9 323.5,15 366.5,-3 		"/>
		<polygon class="st32" points="347.5,202 330.5,257 373.5,216 		"/>
		<polygon class="st40" points="330.5,257 350.5,265 373.5,216 		"/>
		<polygon class="st11" points="350.5,312 365.5,358 379.5,359 		"/>
		<polygon class="st11" points="365.5,358 356.5,359 379.5,359 		"/>
		<polygon class="st49" points="323.5,15 326.5,64 384.5,37 		"/>
		<polygon class="st26" points="366.5,-3 323.5,15 384.5,37 		"/>
		<polygon class="st25" points="340.5,155 347.5,202 384.5,177 		"/>
		<polygon class="st13" points="347.5,202 373.5,216 384.5,177 		"/>
		<polygon class="st15" points="350.5,265 350.5,312 388.5,284 		"/>
		<polygon class="st14" points="326.5,64 325.5,106 396.5,87 		"/>
		<polygon class="st45" points="384.5,37 326.5,64 396.5,87 		"/>
		<polygon class="st40" points="340.5,155 384.5,177 396.5,107 		"/>
		<polygon class="st25" points="325.5,106 340.5,155 396.5,107 		"/>
		<polygon class="st49" points="396.5,87 325.5,106 396.5,107 		"/>
		<polygon class="st38" points="366.5,-3 384.5,37 403.5,17 		"/>
		<polygon class="st39" points="373.5,216 350.5,265 406.5,266 		"/>
		<polygon class="st9" points="350.5,265 388.5,284 406.5,266 		"/>
		<polygon class="st45" points="373.5,216 406.5,266 415.5,232 		"/>
		<polygon class="st9" points="350.5,312 379.5,359 419.5,326 		"/>
		<polygon class="st6" points="388.5,284 350.5,312 419.5,326 		"/>
		<polygon class="st24" points="419.5,326 379.5,359 422.5,354 		"/>
		<polygon class="st3" points="384.5,177 373.5,216 426.5,186 		"/>
		<polygon class="st43" points="373.5,216 415.5,232 426.5,186 		"/>
		<polygon class="st45" points="406.5,266 388.5,284 436.5,307 		"/>
		<polygon class="st12" points="388.5,284 419.5,326 436.5,307 		"/>
		<polygon class="st9" points="426.5,186 415.5,232 439.5,189 		"/>
		<polygon class="st3" points="403.5,17 384.5,37 446.5,55 		"/>
		<polygon class="st12" points="443.5,27 403.5,17 446.5,55 		"/>
		<polygon class="st32" points="384.5,37 396.5,87 446.5,55 		"/>
		<polygon class="st37" points="406.5,266 436.5,307 449.5,284 		"/>
		<polygon class="st25" points="396.5,107 384.5,177 450.5,138 		"/>
		<polygon class="st52" points="384.5,177 426.5,186 450.5,138 		"/>
		<polygon class="st9" points="446.5,55 396.5,87 452.5,92 		"/>
		<polygon class="st43" points="396.5,87 396.5,107 452.5,92 		"/>
		<polygon class="st12" points="396.5,107 450.5,138 452.5,92 		"/>
		<polygon class="st47" points="419.5,326 422.5,354 457.5,343 		"/>
		<polygon class="st18" points="436.5,307 419.5,326 457.5,343 		"/>
		<polygon class="st11" points="426.5,186 439.5,189 457.5,165 		"/>
		<polygon class="st13" points="450.5,138 426.5,186 457.5,165 		"/>
		<polygon class="st12" points="415.5,232 406.5,266 459.5,250 		"/>
		<polygon class="st6" points="406.5,266 449.5,284 459.5,250 		"/>
		<polygon class="st26" points="439.5,189 415.5,232 459.5,250 		"/>
		<polygon class="st38" points="452.5,92 450.5,138 463.5,89 		"/>
		<polygon class="st33" points="446.5,55 452.5,92 463.5,89 		"/>
		<polygon class="st3" points="326.5,-9 366.5,-3 474.5,-4 		"/>
		<polygon class="st45" points="403.5,17 443.5,27 474.5,-4 		"/>
		<polygon class="st48" points="366.5,-3 403.5,17 474.5,-4 		"/>
		<path class="st3" d="M474.5-4l-11,93L474.5-4z"/>
		<polygon class="st43" points="439.5,189 459.5,250 478.5,215 		"/>
		<polygon class="st39" points="449.5,284 436.5,307 483.5,315 		"/>
		<polygon class="st3" points="436.5,307 457.5,343 483.5,315 		"/>
		<polygon class="st13" points="457.5,165 439.5,189 489.5,189 		"/>
		<polygon class="st41" points="439.5,189 478.5,215 489.5,189 		"/>
		<polygon class="st42" points="474.5,-4 463.5,89 494.5,40 		"/>
		<polygon class="st15" points="474.5,-4 474.5,-4 494.5,40 		"/>
		<polygon class="st39" points="443.5,27 446.5,55 494.5,40 		"/>
		<polygon class="st12" points="474.5,-4 443.5,27 494.5,40 		"/>
		<polygon class="st42" points="463.5,89 474.5,-4 494.5,40 		"/>
		<polygon class="st3" points="446.5,55 463.5,89 496.5,76 		"/>
		<polygon class="st14" points="494.5,40 446.5,55 496.5,76 		"/>
		<polygon class="st42" points="463.5,89 450.5,138 497.5,112 		"/>
		<polygon class="st3" points="496.5,76 463.5,89 497.5,112 		"/>
		<polygon class="st26" points="457.5,165 489.5,189 498.5,151 		"/>
		<polygon class="st48" points="450.5,138 457.5,165 498.5,151 		"/>
		<polygon class="st40" points="497.5,112 450.5,138 498.5,151 		"/>
		<polygon class="st28" points="459.5,250 449.5,284 499.5,286 		"/>
		<polygon class="st24" points="449.5,284 483.5,315 499.5,286 		"/>
		<polygon class="st27" points="483.5,315 457.5,343 500.5,353 		"/>
		<polygon class="st43" points="457.5,343 422.5,354 500.5,353 		"/>
		<polygon class="st41" points="478.5,215 459.5,250 512.5,255 		"/>
		<polygon class="st13" points="459.5,250 499.5,286 512.5,255 		"/>
		<polygon class="st1" points="483.5,315 500.5,353 519.5,334 		"/>
		<polygon class="st51" points="497.5,112 498.5,151 521.5,128 		"/>
		<polygon class="st15" points="489.5,189 478.5,215 522.5,227 		"/>
		<polygon class="st3" points="478.5,215 512.5,255 522.5,227 		"/>
		<polygon class="st28" points="499.5,286 483.5,315 523.5,324 		"/>
		<polygon class="st47" points="483.5,315 519.5,334 523.5,324 		"/>
		<polygon class="st42" points="521.5,128 498.5,151 527.5,183 		"/>
		<polygon class="st25" points="498.5,151 489.5,189 527.5,183 		"/>
		<polygon class="st25" points="489.5,189 522.5,227 527.5,183 		"/>
		<polygon class="st35" points="512.5,255 499.5,286 533.5,294 		"/>
		<polygon class="st37" points="499.5,286 523.5,324 533.5,294 		"/>
		<polygon class="st11" points="521.5,128 527.5,183 537.5,78 		"/>
		<polygon class="st3" points="494.5,40 496.5,76 537.5,78 		"/>
		<polygon class="st28" points="496.5,76 497.5,112 537.5,78 		"/>
		<polygon class="st14" points="497.5,112 521.5,128 537.5,78 		"/>
		<polygon class="st38" points="494.5,40 537.5,78 538.5,17 		"/>
		<polygon class="st27" points="474.5,-4 494.5,40 538.5,6 		"/>
		<polygon class="st29" points="494.5,40 538.5,17 538.5,6 		"/>
		<polygon class="st47" points="512.5,255 533.5,294 538.5,263 		"/>
		<polygon class="st27" points="538.5,263 533.5,294 545.5,244 		"/>
		<polygon class="st15" points="527.5,183 522.5,227 545.5,244 		"/>
		<polygon class="st11" points="522.5,227 512.5,255 545.5,244 		"/>
		<polygon class="st28" points="512.5,255 538.5,263 545.5,244 		"/>
		<polygon class="st33" points="537.5,78 527.5,183 545.5,244 		"/>
		<polygon class="st11" points="538.5,6 538.5,17 546.5,-10 		"/>
		<polygon class="st40" points="474.5,-4 538.5,6 546.5,-10 		"/>
		<polygon class="st20" points="538.5,17 537.5,78 546.5,-10 		"/>
		<polygon class="st13" points="326.5,-9 474.5,-4 546.5,-10 		"/>
		<polygon class="st53" points="545.5,244 533.5,294 546.5,360 		"/>
		<polygon class="st5" points="533.5,294 523.5,324 546.5,360 		"/>
		<polygon class="st27" points="523.5,324 519.5,334 546.5,360 		"/>
		<polygon class="st8" points="519.5,334 500.5,353 546.5,360 		"/>
		<polygon class="st15" points="500.5,353 422.5,354 546.5,360 		"/>
	</g>
</g>
</svg>
